<svg width="30" height="26" viewBox="0 0 30 26" fill="none" xmlns="http://www.w3.org/2000/svg">
<path d="M26.3333 0.25H3.66665C2.10406 0.25 0.833313 1.52075 0.833313 3.08333V5.91667C0.833313 6.95933 1.40706 7.86458 2.24998 8.35617V22.9167C2.24998 24.4792 3.52073 25.75 5.08331 25.75H24.9166C26.4792 25.75 27.75 24.4792 27.75 22.9167V8.35617C28.5929 7.86458 29.1666 6.95933 29.1666 5.91667V3.08333C29.1666 1.52075 27.8959 0.25 26.3333 0.25ZM3.66665 3.08333H26.3333L26.3361 5.91667H3.66665V3.08333ZM5.08331 22.9167V8.75H24.9166L24.9195 22.9167H5.08331Z" fill="black"/>
<path d="M9.33331 11.5833H20.6666V14.4167H9.33331V11.5833Z" fill="black"/>
</svg>
