<svg width="32" height="32" viewBox="0 0 32 32" fill="none" xmlns="http://www.w3.org/2000/svg">
<path d="M29.0293 13.54L27.2053 8.068C26.9407 7.2713 26.4318 6.57826 25.7508 6.08734C25.0698 5.59642 24.2515 5.33258 23.412 5.33333H11.2547C10.4152 5.33258 9.59682 5.59642 8.91585 6.08734C8.23487 6.57826 7.72593 7.2713 7.46133 8.068L5.63733 13.54C5.1523 13.7429 4.73808 14.0848 4.44676 14.5225C4.15543 14.9602 4 15.4742 4 16V22.6667C4 23.6507 4.53867 24.5013 5.33333 24.964V28C5.33333 28.3536 5.47381 28.6928 5.72386 28.9428C5.97391 29.1929 6.31304 29.3333 6.66667 29.3333H8C8.35362 29.3333 8.69276 29.1929 8.94281 28.9428C9.19286 28.6928 9.33333 28.3536 9.33333 28V25.3333H25.3333V28C25.3333 28.3536 25.4738 28.6928 25.7239 28.9428C25.9739 29.1929 26.313 29.3333 26.6667 29.3333H28C28.3536 29.3333 28.6928 29.1929 28.9428 28.9428C29.1929 28.6928 29.3333 28.3536 29.3333 28V24.964C29.7379 24.732 30.0741 24.3975 30.3082 23.9942C30.5423 23.5909 30.6659 23.133 30.6667 22.6667V16C30.6667 15.4742 30.5112 14.9602 30.2199 14.5225C29.9286 14.0848 29.5144 13.7429 29.0293 13.54ZM11.2547 8H23.4107C23.9853 8 24.4947 8.36533 24.676 8.912L26.1507 13.3333H8.516L9.98933 8.912C10.0778 8.64639 10.2476 8.41536 10.4747 8.25167C10.7018 8.08798 10.9747 7.99993 11.2547 8ZM8.66667 21.3333C8.40394 21.3332 8.14379 21.2814 7.9011 21.1808C7.6584 21.0802 7.43789 20.9327 7.25218 20.7469C7.06646 20.561 6.91917 20.3404 6.8187 20.0977C6.71824 19.8549 6.66658 19.5947 6.66667 19.332C6.66675 19.0693 6.71859 18.8091 6.81921 18.5664C6.91984 18.3237 7.06728 18.1032 7.25312 17.9175C7.43896 17.7318 7.65956 17.5845 7.90233 17.484C8.14509 17.3836 8.40527 17.3319 8.668 17.332C9.19861 17.3322 9.70742 17.5431 10.0825 17.9184C10.4576 18.2938 10.6682 18.8027 10.668 19.3333C10.6678 19.8639 10.4569 20.3727 10.0815 20.7478C9.70622 21.1229 9.19728 21.3335 8.66667 21.3333ZM26 21.3333C25.7373 21.3332 25.4771 21.2814 25.2344 21.1808C24.9917 21.0802 24.7712 20.9327 24.5855 20.7469C24.3998 20.561 24.2525 20.3404 24.152 20.0977C24.0516 19.8549 23.9999 19.5947 24 19.332C24.0001 19.0693 24.0519 18.8091 24.1525 18.5664C24.2532 18.3237 24.4006 18.1032 24.5865 17.9175C24.7723 17.7318 24.9929 17.5845 25.2357 17.484C25.4784 17.3836 25.7386 17.3319 26.0013 17.332C26.5319 17.3322 27.0408 17.5431 27.4158 17.9184C27.7909 18.2938 28.0015 18.8027 28.0013 19.3333C28.0012 19.8639 27.7902 20.3727 27.4149 20.7478C27.0396 21.1229 26.5306 21.3335 26 21.3333Z" fill="#171A1C"/>
</svg>
