<svg width="37" height="33" viewBox="0 0 37 33" fill="none" xmlns="http://www.w3.org/2000/svg">
<path d="M36.6727 8.12333C36.5041 7.87964 36.2789 7.68045 36.0164 7.54283C35.754 7.40522 35.4621 7.33328 35.1657 7.33318H10.1101L7.99446 2.25496C7.71707 1.58621 7.24734 1.0149 6.64484 0.613448C6.04234 0.211998 5.3342 -0.00150521 4.6102 7.9881e-06H0.33313V3.66659H4.6102L13.3073 24.5386C13.4467 24.8726 13.6817 25.1578 13.9828 25.3585C14.2839 25.5591 14.6376 25.6661 14.9995 25.6661H29.6658C30.4303 25.6661 31.1141 25.1913 31.3836 24.4781L36.8835 9.8118C36.9874 9.53427 37.0226 9.23569 36.9858 8.94162C36.9491 8.64756 36.8417 8.36677 36.6727 8.12333ZM28.3954 21.9995H16.2223L11.6391 10.9998H32.5203L28.3954 21.9995Z" fill="white"/>
<path d="M15.9161 32.9993C17.4349 32.9993 18.6661 31.7681 18.6661 30.2494C18.6661 28.7306 17.4349 27.4994 15.9161 27.4994C14.3974 27.4994 13.1662 28.7306 13.1662 30.2494C13.1662 31.7681 14.3974 32.9993 15.9161 32.9993Z" fill="white"/>
<path d="M28.7492 32.9993C30.268 32.9993 31.4991 31.7681 31.4991 30.2494C31.4991 28.7306 30.268 27.4994 28.7492 27.4994C27.2305 27.4994 25.9993 28.7306 25.9993 30.2494C25.9993 31.7681 27.2305 32.9993 28.7492 32.9993Z" fill="white"/>
</svg>
