<?xml version="1.0" encoding="iso-8859-1"?>
<!-- Generator: Adobe Illustrator 18.0.0, SVG Export Plug-In . SVG Version: 6.00 Build 0)  -->
<!DOCTYPE svg PUBLIC "-//W3C//DTD SVG 1.1//EN" "http://www.w3.org/Graphics/SVG/1.1/DTD/svg11.dtd">
<svg version="1.1" id="Capa_1" xmlns="http://www.w3.org/2000/svg" xmlns:xlink="http://www.w3.org/1999/xlink" x="0px" y="0px"
	 viewBox="0 0 283.019 283.019" style="enable-background:new 0 0 283.019 283.019;" xml:space="preserve">
<g>
	<path d="M253.786,174.916c-7.328-3.789-8.82-11.917-3.316-18.062l29.53-32.964c5.505-6.145,3.266-10.863-4.975-10.485
		l-19.581,0.899c-8.241,0.378-13.597-5.918-11.901-13.992l9.095-43.3c1.696-8.074-2.599-11.037-9.545-6.584l-16.538,10.602
		c-6.945,4.452-14.727,1.68-17.293-6.161l-13.76-42.048c-2.566-7.841-7.768-8.262-11.561-0.935l-9.008,17.402
		c-3.793,7.327-11.925,8.819-18.072,3.317L123.882,3.088c-6.147-5.502-10.867-3.261-10.488,4.98l0.898,19.556
		c0.379,8.241-5.918,13.598-13.992,11.905l-43.336-9.09c-8.074-1.694-11.035,2.601-6.579,9.544l10.602,16.52
		c4.456,6.943,1.686,14.721-6.156,17.285L12.748,87.545c-7.842,2.563-8.262,7.761-0.933,11.55l17.419,9.007
		c7.328,3.789,8.82,11.917,3.316,18.062L3.018,159.129c-5.505,6.145-3.266,10.863,4.976,10.485l19.579-0.898
		c8.241-0.378,13.597,5.919,11.901,13.993l-9.092,43.296c-1.695,8.074,2.6,11.036,9.545,6.583l16.534-10.601
		c6.945-4.453,14.727-1.681,17.292,6.16L87.515,270.2c2.566,7.841,7.768,8.262,11.561,0.935l9.01-17.404
		c3.793-7.327,11.926-8.819,18.073-3.317l32.978,29.518c6.147,5.502,10.867,3.261,10.489-4.98l-0.898-19.554
		c-0.378-8.241,5.918-13.599,13.992-11.905l43.331,9.089c8.074,1.694,11.035-2.602,6.579-9.545l-10.602-16.521
		c-4.456-6.943-1.685-14.722,6.156-17.285l42.086-13.758c7.842-2.563,8.262-7.761,0.933-11.55L253.786,174.916z M140.08,215.529
		c-40.44,0-73.34-32.886-73.34-73.309c0-40.42,32.899-73.303,73.34-73.303c40.438,0.002,73.337,32.885,73.337,73.303
		C213.417,182.643,180.518,215.529,140.08,215.529z"/>
	<path d="M140.08,83.91c-32.173,0-58.347,26.158-58.347,58.311c0,32.155,26.174,58.316,58.347,58.316
		c32.171,0,58.345-26.161,58.345-58.316C198.425,110.07,172.251,83.912,140.08,83.91z M140.08,159.033
		c-9.288,0-16.82-7.523-16.82-16.813c0-9.279,7.532-16.808,16.82-16.808c9.29,0,16.815,7.528,16.815,16.808
		C156.895,151.509,149.37,159.033,140.08,159.033z"/>
</g>
<g>
</g>
<g>
</g>
<g>
</g>
<g>
</g>
<g>
</g>
<g>
</g>
<g>
</g>
<g>
</g>
<g>
</g>
<g>
</g>
<g>
</g>
<g>
</g>
<g>
</g>
<g>
</g>
<g>
</g>
</svg>
