<svg width="28" height="22" viewBox="0 0 28 22" fill="none" xmlns="http://www.w3.org/2000/svg">
<g clip-path="url(#clip0)">
<path d="M18.8991 19.2504L16.8005 19.2526V17.875H11.2005V19.259L9.10134 19.2612C8.71546 19.2616 8.40265 19.5688 8.40221 19.9482L8.40002 21.3116C8.39958 21.6919 8.71371 22.0004 9.1009 22L18.8991 21.9888C19.285 21.9884 19.5978 21.6812 19.5983 21.3022L19.6 19.9388C19.6005 19.5585 19.2863 19.25 18.8991 19.2504ZM25.6025 1.14898C25.4879 0.485977 24.8933 0 24.1964 0H3.80321C3.10627 0 2.51171 0.485977 2.39709 1.14898C-0.145227 15.8623 0.00177308 14.9566 0.00133558 15.125C2.30757e-05 15.8692 0.626523 16.5 1.42759 16.5H26.5725C27.37 16.5 27.9948 15.8744 27.9983 15.134C27.9991 14.9587 28.1448 15.8623 25.6025 1.14898ZM11.3676 2.75H16.632L17.0595 6.875H10.9401L11.3676 2.75ZM8.0789 13.75H3.11021L3.9419 8.9375H8.57809L8.0789 13.75ZM8.79158 6.875H4.29802L5.01071 2.75H9.21902L8.79158 6.875ZM10.2275 13.75L10.7262 8.9375H17.2734L17.7721 13.75H10.2275ZM18.7806 2.75H22.9889L23.7016 6.875H19.208L18.7806 2.75ZM19.9207 13.75L19.422 8.9375H24.0581L24.8898 13.75H19.9207Z" fill="black"/>
</g>
<defs>
<clipPath id="clip0">
<rect width="28" height="22" fill="white"/>
</clipPath>
</defs>
</svg>
