<svg width="32" height="32" viewBox="0 0 32 32" fill="none" xmlns="http://www.w3.org/2000/svg">
<path d="M28.6667 22.6667C28.6667 19.9493 27.0827 17.552 24.6667 16.1067V6.66667H25.3333C25.8638 6.66667 26.3725 6.45596 26.7475 6.08089C27.1226 5.70581 27.3333 5.1971 27.3333 4.66667C27.3333 4.13624 27.1226 3.62753 26.7475 3.25246C26.3725 2.87739 25.8638 2.66667 25.3333 2.66667H13.3333C12.8029 2.66667 12.2942 2.87739 11.9191 3.25246C11.544 3.62753 11.3333 4.13624 11.3333 4.66667C11.3333 5.1971 11.544 5.70581 11.9191 6.08089C12.2942 6.45596 12.8029 6.66667 13.3333 6.66667H14V16.1067C11.584 17.552 10 19.9493 10 22.6667H18V28C18 28.7333 18.6 29.3333 19.3333 29.3333C20.0667 29.3333 20.6667 28.7333 20.6667 28V22.6667H28.6667Z" fill="#171A1C"/>
</svg>
