<svg width="26" height="24" viewBox="0 0 26 24" fill="none" xmlns="http://www.w3.org/2000/svg">
<path d="M24.3334 16.25H21.5V13.4167H24.3334C25.1125 13.4167 25.75 14.0542 25.75 14.8333C25.75 15.6125 25.1125 16.25 24.3334 16.25ZM24.3334 21.9167H21.5V19.0833H24.3334C25.1125 19.0833 25.75 19.7208 25.75 20.5C25.75 21.2792 25.1125 21.9167 24.3334 21.9167ZM15.8334 12C14.275 12 13 13.275 13 14.8333H10.1667V20.5H13C13 22.0583 14.275 23.3333 15.8334 23.3333H20.0834V12H15.8334Z" fill="black"/>
<path d="M1.66667 2.08332C1.66667 2.86249 2.30417 3.49999 3.08333 3.49999H8.04167C9.2175 3.49999 10.1667 4.44916 10.1667 5.62499C10.1667 6.80082 9.2175 7.74999 8.04167 7.74999H5.91667C2.78583 7.74999 0.25 10.2858 0.25 13.4167C0.25 16.5475 2.78583 19.0833 5.91667 19.0833H8.75V16.25H5.91667C4.35833 16.25 3.08333 14.975 3.08333 13.4167C3.08333 11.8583 4.35833 10.5833 5.91667 10.5833H8.04167C10.7758 10.5833 13 8.35916 13 5.62499C13 2.89082 10.7758 0.666656 8.04167 0.666656H3.08333C2.30417 0.666656 1.66667 1.30416 1.66667 2.08332Z" fill="black"/>
</svg>
