<svg height="512pt" viewBox="0 -8 512 512" width="512pt" xmlns="http://www.w3.org/2000/svg"><path d="m94.148438 218.378906 21.015624 4.101563c1.953126 5.691406 4.25 11.261719 6.875 16.671875l-11.964843 17.730468c-4.019531 5.953126-3.253907 13.921876 1.824219 19l42.199218 42.195313c5.078125 5.078125 13.042969 5.84375 18.996094 1.828125l17.734375-11.96875c5.316406 2.582031 10.789063 4.84375 16.382813 6.777344l4.0625 21.027344c1.359374 7.050781 7.53125 12.148437 14.710937 12.15625l59.675781.0625h.015625c7.175781 0 13.347657-5.082032 14.722657-12.125l4.101562-21.019532c5.691406-1.953125 11.261719-4.25 16.671875-6.878906l17.734375 11.96875c5.949219 4.019531 13.917969 3.253906 18.996094-1.828125l42.195312-42.195313c5.082032-5.078124 5.847656-13.042968 1.828125-18.996093l-11.96875-17.734375c2.582031-5.316406 4.847657-10.792969 6.777344-16.382813l21.027344-4.0625c7.050781-1.359375 12.148437-7.53125 12.15625-14.710937l.0625-59.675782c.003906-7.183593-5.078125-13.359374-12.128907-14.738281l-21.015624-4.101562c-1.953126-5.691407-4.25-11.261719-6.878907-16.671875l11.96875-17.734375c4.015625-5.953125 3.25-13.917969-1.828125-18.996094l-42.195312-42.195313c-5.078125-5.082031-13.042969-5.847656-18.996094-1.828124l-17.734375 11.96875c-5.316406-2.582032-10.792969-4.847657-16.386719-6.777344l-4.058594-21.027344c-1.363281-7.054688-7.53125-12.1484375-14.710937-12.15625l-59.675781-.0625c-.007813 0-.011719 0-.015625 0-7.175781 0-13.347657 5.082031-14.722657 12.125l-4.101562 21.019531c-5.691406 1.953125-11.261719 4.25-16.671875 6.875l-17.730469-11.964843c-5.957031-4.019532-13.921875-3.253907-19 1.824218l-42.195312 42.199219c-5.082032 5.078125-5.847656 13.042969-1.828125 18.996094l11.96875 17.734375c-2.582031 5.316406-4.847657 10.789062-6.777344 16.382812l-21.027344 4.0625c-7.050781 1.359375-12.148437 7.53125-12.15625 14.710938l-.0625 59.675781c-.007812 7.183594 5.078125 13.363281 12.128907 14.738281zm17.917968-62.015625 17.703125-3.417969c5.597657-1.082031 10.101563-5.246093 11.617188-10.746093 2.589843-9.417969 6.34375-18.484375 11.144531-26.957031 2.8125-4.953126 2.574219-11.070313-.609375-15.789063l-10.0625-14.910156 24.707031-24.703125 14.90625 10.058594c4.722656 3.1875 10.839844 3.421874 15.792969.613281 8.546875-4.847657 17.695313-8.621094 27.1875-11.210938 5.503906-1.503906 9.679687-6 10.769531-11.597656l3.453125-17.691406 34.9375.035156 3.417969 17.699219c1.082031 5.601562 5.246094 10.105468 10.75 11.617187 9.410156 2.59375 18.480469 6.34375 26.953125 11.148438 4.953125 2.808593 11.070313 2.574219 15.792969-.613281l14.90625-10.0625 24.707031 24.707031-10.0625 14.90625c-3.183594 4.722656-3.421875 10.839843-.613281 15.792969 4.847656 8.546874 8.621094 17.695312 11.214844 27.1875 1.5 5.503906 5.996093 9.679687 11.597656 10.773437l17.6875 3.453125-.035156 34.9375-17.699219 3.417969c-5.601563 1.082031-10.101563 5.246093-11.617188 10.746093-2.589843 9.414063-6.339843 18.484376-11.148437 26.957032-2.808594 4.953125-2.570313 11.070312.613281 15.789062l10.0625 14.90625-24.707031 24.707032-14.90625-10.058594c-4.722656-3.1875-10.839844-3.425782-15.792969-.617188-8.546875 4.851563-17.695313 8.625-27.1875 11.214844-5.5 1.5-9.675781 5.996094-10.769531 11.597656l-3.453125 17.691406-34.9375-.035156-3.417969-17.699218c-1.082031-5.605469-5.246094-10.105469-10.746094-11.621094-9.414062-2.589844-18.484375-6.339844-26.957031-11.148438-4.953125-2.808594-11.070313-2.570312-15.792969.617188l-14.90625 10.058594-24.707031-24.707032 10.0625-14.90625c3.183594-4.71875 3.421875-10.835937.613281-15.789062-4.847656-8.550782-8.621094-17.695313-11.214844-27.191406-1.503906-5.503907-5.996093-9.675782-11.597656-10.769532l-17.6875-3.453125zm0 0"/><path d="m15 388.695312c16.320312 0 23.71875 3.960938 33.085938 8.976563 10.96875 5.867187 23.398437 12.523437 47.246093 12.523437 23.84375 0 36.273438-6.65625 47.242188-12.523437 9.367187-5.015625 16.765625-8.976563 33.085937-8.976563 16.320313 0 23.71875 3.960938 33.085938 8.976563 10.96875 5.867187 23.398437 12.523437 47.242187 12.523437 23.847657 0 36.277344-6.65625 47.246094-12.523437 9.367187-5.015625 16.769531-8.976563 33.089844-8.976563 16.324219 0 23.722656 3.960938 33.089843 8.976563 10.96875 5.867187 23.402344 12.519531 47.246094 12.519531 23.847656 0 36.28125-6.652344 47.25-12.519531 9.367188-5.015625 16.765625-8.976563 33.089844-8.976563 8.285156 0 15-6.714843 15-15 0-8.285156-6.714844-15-15-15-23.847656 0-36.277344 6.652344-47.246094 12.523438-9.367187 5.015625-16.769531 8.972656-33.09375 8.972656-16.320312 0-23.722656-3.957031-33.089844-8.972656-10.96875-5.871094-23.398437-12.523438-47.246093-12.523438-23.84375 0-36.277344 6.652344-47.246094 12.523438-9.367187 5.015625-16.765625 8.976562-33.089844 8.976562-16.320312 0-23.71875-3.960937-33.085937-8.976562-10.96875-5.871094-23.398438-12.523438-47.246094-12.523438-23.84375 0-36.273438 6.65625-47.242188 12.523438-9.367187 5.015625-16.765624 8.976562-33.085937 8.976562s-23.71875-3.960937-33.085937-8.976562c-10.964844-5.867188-23.398438-12.523438-47.242188-12.523438-8.285156 0-15 6.714844-15 15 0 8.285157 6.714844 15 15 15zm0 0"/><path d="m497 444.777344c-23.847656 0-36.277344 6.65625-47.246094 12.523437-9.367187 5.015625-16.769531 8.976563-33.09375 8.976563-16.320312 0-23.722656-3.960938-33.089844-8.976563-10.96875-5.867187-23.398437-12.523437-47.246093-12.523437-23.84375 0-36.277344 6.65625-47.246094 12.527344-9.367187 5.011718-16.765625 8.972656-33.089844 8.972656-16.320312 0-23.71875-3.960938-33.085937-8.972656-10.96875-5.871094-23.398438-12.527344-47.246094-12.527344-23.84375 0-36.273438 6.65625-47.242188 12.527344-9.367187 5.011718-16.765624 8.972656-33.085937 8.972656s-23.71875-3.960938-33.085937-8.972656c-10.964844-5.871094-23.398438-12.527344-47.242188-12.527344-8.285156 0-15 6.71875-15 15 0 8.285156 6.714844 15 15 15 16.320312 0 23.71875 3.960937 33.085938 8.976562 10.96875 5.871094 23.398437 12.523438 47.246093 12.523438 23.84375 0 36.273438-6.65625 47.242188-12.523438 9.367187-5.015625 16.765625-8.976562 33.085937-8.976562 16.320313 0 23.71875 3.960937 33.085938 8.976562 10.96875 5.871094 23.398437 12.523438 47.242187 12.523438 23.847657 0 36.277344-6.652344 47.246094-12.523438 9.367187-5.015625 16.769531-8.976562 33.089844-8.976562 16.324219 0 23.722656 3.960937 33.089843 8.976562 10.96875 5.867188 23.402344 12.523438 47.246094 12.523438 23.847656 0 36.28125-6.65625 47.25-12.523438 9.367188-5.015625 16.765625-8.976562 33.089844-8.976562 8.285156 0 15-6.714844 15-15 0-8.28125-6.714844-15-15-15zm0 0"/><path d="m256 252.667969c43.390625 0 78.6875-35.300781 78.6875-78.6875 0-43.390625-35.296875-78.691407-78.6875-78.691407s-78.691406 35.300782-78.691406 78.691407c0 43.386719 35.300781 78.6875 78.691406 78.6875zm0-127.378907c26.847656 0 48.6875 21.84375 48.6875 48.691407 0 26.84375-21.839844 48.6875-48.6875 48.6875s-48.691406-21.839844-48.691406-48.6875c0-26.847657 21.84375-48.691407 48.691406-48.691407zm0 0"/></svg>