<svg id="Capa_1" enable-background="new 0 0 512 512" height="512" viewBox="0 0 512 512" width="512" xmlns="http://www.w3.org/2000/svg"><g><g><path d="m393.313 190.34c-3.406-105.534-90.282-190.34-196.598-190.34-108.469 0-196.715 88.271-196.715 196.771 0 106.412 84.885 193.354 190.478 196.662 19.748 68.4 82.903 118.567 157.557 118.567 90.41 0 163.965-73.576 163.965-164.012 0-74.731-50.228-137.945-118.687-157.648zm-209.244 157.648c0 2.195.056 4.377.142 6.552-10.616-14.747-32.512-48.466-45.482-91.507h69.095c-15.069 24.793-23.755 53.879-23.755 84.955zm47.137-114.955h-99.582c-2-11.69-3.164-23.826-3.164-36.262 0-16.668 2.179-32.946 5.729-48.417h125.097c3.522 15.434 5.684 31.706 5.684 48.417 0 3.366-.108 6.704-.273 10.024-12.282 7.281-23.536 16.117-33.491 26.238zm-201.206-36.262c0-16.833 2.515-33.087 7.174-48.417h66.161c-3.048 15.399-4.875 31.62-4.875 48.417 0 12.435 1.002 24.556 2.756 36.262h-67.237c-2.599-11.678-3.979-23.811-3.979-36.262zm264.93-3.961c-.261-15.387-2.027-30.271-4.835-44.455h66.161c3.531 11.622 5.828 23.775 6.731 36.31-4.926-.448-9.911-.689-14.952-.689-18.578 0-36.442 3.112-53.105 8.834zm48.883-74.456h-61.391c-10.73-34.245-26.298-62.623-38.358-81.492 43.071 12.785 78.914 42.541 99.749 81.492zm-140.919-88.228c6.744 8.762 31.496 42.701 47.633 88.228h-107.551c15.812-44.55 39.854-78.317 47.343-88.22 2.123-.081 4.253-.135 6.396-.135 2.07.001 4.127.052 6.179.127zm-53.527 6.736c-12.061 18.869-27.629 47.247-38.359 81.492h-61.391c20.835-38.952 56.678-68.707 99.75-81.492zm-105.626 226.171h63.74c10.594 39.682 28.424 72.586 41.885 93.645-47.45-14.081-86.121-48.768-105.625-93.645zm304.294 218.967c-73.869 0-133.966-60.118-133.966-134.012s60.097-134.012 133.966-134.012c73.868 0 133.965 60.118 133.965 134.012s-60.097 134.012-133.965 134.012z"/></g><path d="m372.62 333.47c-11.021-3.896-23.186-8.583-29.85-13.809-1.398-1.097-1.989-4.145-1.404-7.247.319-1.696 1.801-7.363 7.443-9.063 10.431-3.14 17.505.965 20.063 2.877 6.636 4.96 16.034 3.604 20.996-3.031 4.96-6.635 3.604-16.035-3.031-20.996-2.551-1.908-8.672-5.932-17.43-8.246v-3.007c0-8.284-6.716-15-15-15s-15 6.716-15 15v3.932c-14.135 4.569-24.652 16.74-27.523 31.978-2.704 14.351 2.036 28.302 12.372 36.408 10.051 7.883 24.379 13.544 38.365 18.489 10.304 3.642 10.611 11.504 9.878 15.867-1.243 7.396-7.467 15.389-18.191 15.46-11.738.074-14.768-.404-23.494-6.114-6.932-4.535-16.229-2.593-20.765 4.341-4.535 6.933-2.592 16.229 4.341 20.764 9.512 6.223 16.713 9.039 25.018 10.228v3.363c0 8.284 6.716 15 15 15s15-6.716 15-15v-4.951c18.291-5.931 29.989-22.127 32.677-38.117 3.674-21.855-8.167-41.597-29.465-49.126z"/></g></svg>