<svg width="26" height="38" viewBox="0 0 26 38" fill="none" xmlns="http://www.w3.org/2000/svg">
<path d="M26 13.3C26 11.5534 25.6637 9.82394 25.0104 8.21031C24.3571 6.59668 23.3995 5.1305 22.1924 3.89548C20.9852 2.66046 19.5521 1.68079 17.9749 1.0124C16.3977 0.344015 14.7072 0 13 0C11.2928 0 9.60235 0.344015 8.02511 1.0124C6.44788 1.68079 5.01477 2.66046 3.80761 3.89548C2.60045 5.1305 1.64288 6.59668 0.989566 8.21031C0.336255 9.82394 -2.5439e-08 11.5534 0 13.3C0 15.9353 0.761429 18.3863 2.05214 20.4535H2.03729C6.42014 27.474 13 38 13 38L23.9627 20.4535H23.9497C25.2876 18.3186 25.9992 15.836 26 13.3ZM13 19C11.5224 19 10.1052 18.3995 9.0604 17.3305C8.01556 16.2616 7.42857 14.8117 7.42857 13.3C7.42857 11.7883 8.01556 10.3384 9.0604 9.26949C10.1052 8.20053 11.5224 7.6 13 7.6C14.4776 7.6 15.8947 8.20053 16.9396 9.26949C17.9844 10.3384 18.5714 11.7883 18.5714 13.3C18.5714 14.8117 17.9844 16.2616 16.9396 17.3305C15.8947 18.3995 14.4776 19 13 19Z" fill="white"/>
</svg>
