<?xml version="1.0" encoding="iso-8859-1"?>
<!-- Generator: Adobe Illustrator 17.1.0, SVG Export Plug-In . SVG Version: 6.00 Build 0)  -->
<!DOCTYPE svg PUBLIC "-//W3C//DTD SVG 1.1//EN" "http://www.w3.org/Graphics/SVG/1.1/DTD/svg11.dtd">
<svg version="1.1" id="Capa_1" xmlns="http://www.w3.org/2000/svg" xmlns:xlink="http://www.w3.org/1999/xlink" x="0px" y="0px"
	 viewBox="0 0 216.553 216.553" style="enable-background:new 0 0 216.553 216.553;" xml:space="preserve">
<path d="M203.705,1.492l-3.327-0.979C199.22,0.173,197.997,0,196.743,0c-5.291,0-10.401,3.019-12.718,7.513l-32.25,62.581
	c-2.23-0.436-4.532-0.671-6.888-0.671h-33.443v-3.982c0-0.992-0.1-1.958-0.245-2.91h14.528c6.61,0,11.988-5.378,11.988-11.989
	c0-6.611-5.378-11.99-11.988-11.99H58.917c-6.611,0-11.989,5.378-11.989,11.99c0,6.611,5.378,11.989,11.989,11.989h14.527
	c-0.146,0.951-0.245,1.918-0.245,2.91v3.982H49.382c-18.159,0-31.211,12.893-35.807,35.375c-3.874,18.953-8.425,56.787-9.61,75.476
	c-0.564,8.916,2.64,17.573,9.023,24.373c6.938,7.392,16.716,11.632,26.826,11.632h49.438c0.22,0.013,0.436,0.035,0.662,0.036
	l63.582,0.237h0.046c6.405,0,12.577-4.879,14.052-11.108l44.734-189.108C213.83,9.991,209.961,3.331,203.705,1.492z M94.438,186.622
	c-18.511,1.271-34.382-10.313-35.653-28.823c-1.271-18.511,29.482-38.306,29.796-56.52c0.228-13.1,35.968,33.409,37.237,51.92
	C127.089,171.709,112.948,185.351,94.438,186.622z"/>
<g>
</g>
<g>
</g>
<g>
</g>
<g>
</g>
<g>
</g>
<g>
</g>
<g>
</g>
<g>
</g>
<g>
</g>
<g>
</g>
<g>
</g>
<g>
</g>
<g>
</g>
<g>
</g>
<g>
</g>
</svg>
