<svg id="Capa_1" enable-background="new 0 0 512 512" height="512" viewBox="0 0 512 512" width="512" xmlns="http://www.w3.org/2000/svg"><g><path d="m450 120v-60h-60v-60h-390v390h60v60h60v62h392v-392zm-420-90h330v330h-330zm60 360h300v-300h30v330h-330zm392 92h-332v-32h300v-300h32z"/><path d="m60 60h30v30h-30z"/><path d="m120 60h30v30h-30z"/><path d="m180 60h30v30h-30z"/><path d="m240 60h30v30h-30z"/><path d="m300 60h30v30h-30z"/><path d="m60 120h30v30h-30z"/><path d="m120 120h30v30h-30z"/><path d="m180 120h30v30h-30z"/><path d="m240 120h30v30h-30z"/><path d="m300 120h30v30h-30z"/><path d="m60 180h30v30h-30z"/><path d="m120 180h30v30h-30z"/><path d="m180 180h30v30h-30z"/><path d="m240 180h30v30h-30z"/><path d="m300 180h30v30h-30z"/><path d="m60 240h30v30h-30z"/><path d="m120 240h30v30h-30z"/><path d="m180 240h30v30h-30z"/><path d="m240 240h30v30h-30z"/><path d="m300 240h30v30h-30z"/><path d="m60 300h30v30h-30z"/><path d="m120 300h30v30h-30z"/><path d="m180 300h30v30h-30z"/><path d="m240 300h30v30h-30z"/><path d="m300 300h30v30h-30z"/></g></svg>