<svg id="Layer_5" enable-background="new 0 0 64 64" height="512" viewBox="0 0 64 64" width="512" xmlns="http://www.w3.org/2000/svg"><g><path d="m37 5.184v-1.184c0-1.654-1.346-3-3-3h-4c-1.654 0-3 1.346-3 3v1.184c-1.161.414-2 1.514-2 2.816v4c0 1.302.839 2.402 2 2.816v4.369c-1.161.414-2 1.514-2 2.816v8c0 1.302.839 2.402 2 2.816v4.183h2v14.586l-2.107 2.107 2.326 9.307h5.562l2.326-9.307-2.107-2.107v-14.586h2v-4.184c1.161-.414 2-1.514 2-2.816v-8c0-1.302-.839-2.402-2-2.816v-4.369c1.161-.414 2-1.514 2-2.816v-3.999c0-1.302-.839-2.402-2-2.816zm-6 25.816v-10h2v10zm-2-12v-4h6v4zm2-6v-6h2v6zm-1-10h4c.552 0 1 .448 1 1v1h-6v-1c0-.552.448-1 1-1zm-3 5c0-.552.448-1 1-1h1v6h-1c-.552 0-1-.448-1-1zm0 14c0-.552.448-1 1-1h1v10h-1c-.552 0-1-.448-1-1zm7.893 32.307-1.674 6.693h-2.438l-1.674-6.693 1.893-1.893v-15.414h2v15.414zm-5.893-19.307v-2h6v2zm8-5c0 .552-.448 1-1 1h-1v-10h1c.552 0 1 .448 1 1zm0-18c0 .552-.448 1-1 1h-1v-6h1c.552 0 1 .448 1 1z"/><path d="m19 5.184v-1.184c0-1.654-1.346-3-3-3h-4c-1.654 0-3 1.346-3 3v1.184c-1.161.414-2 1.514-2 2.816v4c0 1.302.839 2.402 2 2.816v4.369c-1.161.413-2 1.513-2 2.815v8c0 1.302.839 2.402 2 2.816v4.184h2v26h2.414l3.586-3.586v-22.414h2v-4.184c1.161-.414 2-1.514 2-2.816v-8c0-1.302-.839-2.402-2-2.816v-4.369c1.161-.414 2-1.514 2-2.816v-3.999c0-1.302-.839-2.402-2-2.816zm-6 25.816v-10h2v10zm-2-12v-4h6v4zm2-6v-6h2v6zm-1-10h4c.552 0 1 .448 1 1v1h-6v-1c0-.552.448-1 1-1zm-3 5c0-.552.448-1 1-1h1v6h-1c-.552 0-1-.448-1-1zm0 14c0-.552.448-1 1-1h1v10h-1c-.552 0-1-.448-1-1zm6 36.586-2 2v-23.586h2zm-4-23.586v-2h6v2zm8-5c0 .552-.448 1-1 1h-1v-10h1c.552 0 1 .448 1 1zm0-18c0 .552-.448 1-1 1h-1v-6h1c.552 0 1 .448 1 1z"/><path d="m55 5.184v-1.184c0-1.654-1.346-3-3-3h-4c-1.654 0-3 1.346-3 3v1.184c-1.161.414-2 1.514-2 2.816v22c0 1.302.839 2.402 2 2.816v1.184c0 1.302.839 2.402 2 2.816v23.184c0 1.654 1.346 3 3 3s3-1.346 3-3v-23.184c1.161-.414 2-1.514 2-2.816v-1.184c1.161-.414 2-1.514 2-2.816v-22c0-1.302-.839-2.402-2-2.816zm-6 25.816v-24h2v24zm-1-28h4c.552 0 1 .448 1 1v1h-6v-1c0-.552.448-1 1-1zm-3 5c0-.552.448-1 1-1h1v24h-1c-.552 0-1-.448-1-1zm5 53c-.552 0-1-.448-1-1v-23h2v23c0 .552-.448 1-1 1zm2-26h-4c-.552 0-1-.448-1-1v-1h6v1c0 .552-.448 1-1 1zm3-5c0 .552-.448 1-1 1h-1v-24h1c.552 0 1 .448 1 1z"/></g></svg>