<svg id="Capa_1" enable-background="new 0 0 512 512" height="512" viewBox="0 0 512 512" width="512" xmlns="http://www.w3.org/2000/svg"><g><circle cx="105" cy="285" r="15"/><circle cx="105" cy="165" r="15"/><path d="m497 330h-15v60h30v-45c0-8.284-6.716-15-15-15z"/><path d="m482 45c0-24.813-20.186-45-45-45h-392c-24.813 0-45 20.187-45 45v345h302v-60h-92v-180h92v45c0 8.284 6.716 15 15 15h150c8.284 0 15-6.716 15-15zm-377 285c-24.813 0-45-20.186-45-45s20.187-45 45-45 45 20.186 45 45-20.187 45-45 45zm0-120c-24.813 0-45-20.186-45-45s20.187-45 45-45 45 20.186 45 45-20.187 45-45 45z"/><path d="m0 465c0 8.284 6.716 15 15 15h287v-60h-302z"/><path d="m482 480h15c8.284 0 15-6.716 15-15v-45h-30z"/><path d="m409.667 300c8.284 0 15-6.716 15-15s-6.716-15-15-15v-30h-30v30c-8.284 0-15 6.716-15 15s6.716 15 15 15v30h-47.667v167c0 8.284 6.716 15 15 15h90c8.284 0 15-6.716 15-15v-167h-42.333z"/></g></svg>