<svg width="28" height="28" viewBox="0 0 28 28" fill="none" xmlns="http://www.w3.org/2000/svg">
<g clip-path="url(#clip0)">
<path fill-rule="evenodd" clip-rule="evenodd" d="M22.7482 9.25C22.7482 8.78587 22.5639 8.34075 22.2357 8.01256C21.9075 7.68437 21.4624 7.5 20.9982 7.5H19.2482C19.2482 7.03587 19.0639 6.59075 18.7357 6.26256C18.4075 5.93437 17.9624 5.75 17.4982 5.75H15.7482C15.7482 4.78225 14.9678 4 14.0018 4H8.76575C1.78325 4 0.03675 8.28225 0.03675 9.25V14.5C0.03675 17.9703 2.5165 18 3.5 18L0 26.75C0 27.2141 0.184374 27.6592 0.512563 27.9874C0.840752 28.3156 1.28587 28.5 1.75 28.5H8.75C9.21413 28.5 9.65925 28.3156 9.98744 27.9874C10.3156 27.6592 10.5 27.2141 10.5 26.75C10.5 26.75 3.5 26.75 10.5 18H10.5122C11.4782 18 15.75 18 15.75 14.5H17.5C17.9641 14.5 18.4092 14.3156 18.7374 13.9874C19.0656 13.6592 19.25 13.2141 19.25 12.75H21C21.4641 12.75 21.9092 12.5656 22.2374 12.2374C22.5656 11.9092 22.75 11.4641 22.75 11H28V9.25H22.7482ZM5.24825 9.25H6.99825V14.5H5.24825V9.25ZM1.74825 9.25H3.49825V14.5H1.74825V9.25Z" fill="#171A1C"/>
</g>
<defs>
<clipPath id="clip0">
<rect width="28" height="28" fill="white"/>
</clipPath>
</defs>
</svg>
