<svg width="23" height="27" viewBox="0 0 23 27" fill="none" xmlns="http://www.w3.org/2000/svg">
<path d="M22.1333 14.4667C22.1333 20.866 17.8993 26.0667 11.5 26.0667C5.10064 26.0667 0.866638 20.866 0.866638 14.4667C3.00255 14.4847 5.08009 15.1659 6.81187 16.4163C8.54365 17.6666 9.84409 19.4242 10.5333 21.446V12.5333H5.69997C4.93084 12.5333 4.19322 12.2278 3.64936 11.6839C3.10551 11.1401 2.79997 10.4024 2.79997 9.63332V3.83332C2.79997 3.63044 2.86381 3.43269 2.98244 3.2681C3.10107 3.10351 3.26848 2.98042 3.46095 2.91626C3.65343 2.8521 3.86121 2.85013 4.05487 2.91063C4.24852 2.97112 4.41824 3.09101 4.53997 3.25332L7.49797 7.11999L10.688 1.31999C10.7756 1.18432 10.8958 1.07277 11.0377 0.995531C11.1795 0.918291 11.3385 0.877823 11.5 0.877823C11.6615 0.877823 11.8204 0.918291 11.9623 0.995531C12.1041 1.07277 12.2243 1.18432 12.312 1.31999L15.502 7.11999L18.46 3.25332C18.5817 3.09101 18.7514 2.97112 18.9451 2.91063C19.1387 2.85013 19.3465 2.8521 19.539 2.91626C19.7315 2.98042 19.8989 3.10351 20.0175 3.2681C20.1361 3.43269 20.2 3.63044 20.2 3.83332V9.63332C20.2 10.4024 19.8944 11.1401 19.3506 11.6839C18.8067 12.2278 18.0691 12.5333 17.3 12.5333H12.4666V21.446C13.1558 19.4242 14.4563 17.6666 16.1881 16.4163C17.9199 15.1659 19.9974 14.4847 22.1333 14.4667Z" fill="black"/>
</svg>
