<svg width="32" height="17" viewBox="0 0 32 17" fill="none" xmlns="http://www.w3.org/2000/svg">
<path d="M24.5 3.75C26.0725 3.75 27.3334 5.01083 27.3334 6.58333V10.8333C27.3334 12.4058 26.0725 13.6667 24.5 13.6667H21.3409L19.5842 11.9242C18.5217 10.8333 17.0909 10.2667 15.575 10.2667C14.0592 10.2667 12.6425 10.8333 11.5659 11.9242L9.82335 13.6667H7.50002C5.92752 13.6667 4.66669 12.4058 4.66669 10.8333V6.58333C4.66669 5.01083 5.92752 3.75 7.50002 3.75H24.5ZM24.5 0.916666H7.50002C5.99713 0.916666 4.55579 1.51369 3.49308 2.57639C2.43038 3.6391 1.83335 5.08044 1.83335 6.58333H0.416687V10.8333H1.83335C1.83335 12.3362 2.43038 13.7776 3.49308 14.8403C4.55579 15.903 5.99713 16.5 7.50002 16.5H11.0417C11.0984 16.415 11.1692 16.33 13.5775 13.9217C14.13 13.3692 14.8525 13.1 15.575 13.1C16.3117 13.1 17.0342 13.3692 17.5867 13.9217L20.1225 16.5H24.5C26.0029 16.5 27.4443 15.903 28.507 14.8403C29.5697 13.7776 30.1667 12.3362 30.1667 10.8333H31.5834V6.58333H30.1667C30.1667 5.08044 29.5697 3.6391 28.507 2.57639C27.4443 1.51369 26.0029 0.916666 24.5 0.916666Z" fill="#171A1C"/>
</svg>
