<svg width="24" height="30" viewBox="0 0 24 30" fill="none" xmlns="http://www.w3.org/2000/svg">
<path d="M17.3333 13.6667H16V3C16 1.53334 14.8 0.333336 13.3333 0.333336H10.6667C9.2 0.333336 8 1.53334 8 3V13.6667H6.66667C2.98667 13.6667 0 16.6533 0 20.3333V29.6667H24V20.3333C24 16.6533 21.0133 13.6667 17.3333 13.6667ZM21.3333 27H18.6667V23C18.6667 22.2667 18.0667 21.6667 17.3333 21.6667C16.6 21.6667 16 22.2667 16 23V27H13.3333V23C13.3333 22.2667 12.7333 21.6667 12 21.6667C11.2667 21.6667 10.6667 22.2667 10.6667 23V27H8V23C8 22.2667 7.4 21.6667 6.66667 21.6667C5.93333 21.6667 5.33333 22.2667 5.33333 23V27H2.66667V20.3333C2.66667 18.1333 4.46667 16.3333 6.66667 16.3333H17.3333C19.5333 16.3333 21.3333 18.1333 21.3333 20.3333V27Z" fill="black"/>
</svg>
