<svg width="30" height="23" viewBox="0 0 30 23" fill="none" xmlns="http://www.w3.org/2000/svg">
<path d="M10.75 0.0833435C13.38 0.0833435 15.9024 1.12813 17.7621 2.98787C19.6219 4.8476 20.6666 7.36995 20.6666 10H22.0833V14.25H20.6666V19.9167H10.75C8.11992 19.9167 5.59757 18.8719 3.73784 17.0122C1.8781 15.1524 0.833313 12.6301 0.833313 10C0.833313 7.36995 1.8781 4.8476 3.73784 2.98787C5.59757 1.12813 8.11992 0.0833435 10.75 0.0833435ZM10.75 4.33334C9.24709 4.33334 7.80575 4.93037 6.74304 5.99307C5.68034 7.05578 5.08331 8.49712 5.08331 10C5.08331 11.5029 5.68034 12.9442 6.74304 14.0069C7.80575 15.0697 9.24709 15.6667 10.75 15.6667C12.2529 15.6667 13.6942 15.0697 14.7569 14.0069C15.8196 12.9442 16.4166 11.5029 16.4166 10C16.4166 8.49712 15.8196 7.05578 14.7569 5.99307C13.6942 4.93037 12.2529 4.33334 10.75 4.33334ZM22.0833 17.0833H29.1666V22.75H26.3333V19.9167H22.0833V17.0833Z" fill="black"/>
</svg>
