<svg width="25" height="25" viewBox="0 0 25 25" fill="none" xmlns="http://www.w3.org/2000/svg">
<path d="M23.02 11.655C22.068 12.6091 20.8544 13.2594 19.5328 13.5237C18.2111 13.788 16.8408 13.6545 15.595 13.14L7.48003 22.92C5.99503 24.405 3.59503 24.405 2.11003 22.92C0.625027 21.435 0.625027 19.035 2.11003 17.565L11.89 9.435C10.87 6.96 11.365 4.02 13.375 2.01C15.295 0.0899968 18.055 -0.420003 20.455 0.419997L16.12 4.755L20.35 8.985L24.64 4.68C25.435 7.05 24.91 9.765 23.02 11.655ZM3.71503 21.315C4.31503 21.9 5.27503 21.9 5.86003 21.315C6.46003 20.715 6.46003 19.755 5.86003 19.17C5.27503 18.57 4.31503 18.57 3.71503 19.17C3.43379 19.4561 3.27619 19.8413 3.27619 20.2425C3.27619 20.6437 3.43379 21.0289 3.71503 21.315Z" fill="black"/>
</svg>
