<svg width="26" height="26" viewBox="0 0 26 26" fill="none" xmlns="http://www.w3.org/2000/svg">
<path d="M21.75 16.125C21.75 16.125 24.25 18.8375 24.25 20.5C24.25 21.163 23.9866 21.7989 23.5178 22.2678C23.0489 22.7366 22.413 23 21.75 23C21.087 23 20.4511 22.7366 19.9822 22.2678C19.5134 21.7989 19.25 21.163 19.25 20.5C19.25 18.8375 21.75 16.125 21.75 16.125ZM4.25 20.5V9.25C3.58696 9.25 2.95107 8.98661 2.48223 8.51777C2.01339 8.04893 1.75 7.41304 1.75 6.75C1.75 6.08696 2.01339 5.45107 2.48223 4.98223C2.95107 4.51339 3.58696 4.25 4.25 4.25V3C4.25 2.33696 4.51339 1.70107 4.98223 1.23223C5.45107 0.763392 6.08696 0.5 6.75 0.5H9.25C9.91304 0.5 10.5489 0.763392 11.0178 1.23223C11.4866 1.70107 11.75 2.33696 11.75 3V4.25H21.75C22.413 4.25 23.0489 4.51339 23.5178 4.98223C23.9866 5.45107 24.25 6.08696 24.25 6.75V11.75C24.5815 11.75 24.8995 11.8817 25.1339 12.1161C25.3683 12.3505 25.5 12.6685 25.5 13C25.5 13.3315 25.3683 13.6495 25.1339 13.8839C24.8995 14.1183 24.5815 14.25 24.25 14.25H19.25C18.9185 14.25 18.6005 14.1183 18.3661 13.8839C18.1317 13.6495 18 13.3315 18 13C18 12.6685 18.1317 12.3505 18.3661 12.1161C18.6005 11.8817 18.9185 11.75 19.25 11.75V9.25H11.75V20.5H13C13.663 20.5 14.2989 20.7634 14.7678 21.2322C15.2366 21.7011 15.5 22.337 15.5 23V25.5H0.5V23C0.5 22.337 0.763392 21.7011 1.23223 21.2322C1.70107 20.7634 2.33696 20.5 3 20.5H4.25Z" fill="#171A1C"/>
</svg>
